<?xml version="1.0" encoding="UTF-8" standalone="no"?>
<svg
   xmlns:dc="http://purl.org/dc/elements/1.1/"
   xmlns:cc="http://creativecommons.org/ns#"
   xmlns:rdf="http://www.w3.org/1999/02/22-rdf-syntax-ns#"
   xmlns:svg="http://www.w3.org/2000/svg"
   xmlns="http://www.w3.org/2000/svg"
   xmlns:sodipodi="http://sodipodi.sourceforge.net/DTD/sodipodi-0.dtd"
   xmlns:inkscape="http://www.inkscape.org/namespaces/inkscape"
   inkscape:export-ydpi="96"
   inkscape:export-xdpi="96"
   inkscape:export-filename="C:\Users\Admin\Desktop\ebisuke\ebisuke\public\images\logo2.png"
   width="153.73044mm"
   height="130.09064mm"
   viewBox="0 0 153.73044 130.09064"
   version="1.1"
   id="svg8"
   sodipodi:docname="logo.svg"
   inkscape:version="1.0 (4035a4fb49, 2020-05-01)">
  <defs
     id="defs2">
    <rect
       id="rect836"
       height="17.386906"
       width="58.208336"
       y="167.03159"
       x="-72.594513" />
  </defs>
  <sodipodi:namedview
     inkscape:snap-text-baseline="false"
     id="base"
     pagecolor="#ffffff"
     bordercolor="#666666"
     borderopacity="1.0"
     inkscape:pageopacity="0.0"
     inkscape:pageshadow="2"
     inkscape:zoom="0.7"
     inkscape:cx="247.9662"
     inkscape:cy="224.21875"
     inkscape:document-units="mm"
     inkscape:current-layer="g847"
     inkscape:document-rotation="0"
     showgrid="false"
     fit-margin-top="0"
     fit-margin-left="0"
     fit-margin-right="0"
     fit-margin-bottom="0"
     inkscape:window-width="1600"
     inkscape:window-height="837"
     inkscape:window-x="-8"
     inkscape:window-y="-8"
     inkscape:window-maximized="1" />
  <metadata
     id="metadata5">
    <rdf:RDF>
      <cc:Work
         rdf:about="">
        <dc:format>image/svg+xml</dc:format>
        <dc:type
           rdf:resource="http://purl.org/dc/dcmitype/StillImage" />
        <dc:title></dc:title>
      </cc:Work>
    </rdf:RDF>
  </metadata>
  <g
     inkscape:label="Layer 1"
     inkscape:groupmode="layer"
     id="layer1"
     transform="translate(-42.017714,-66.082352)">
    <g
       id="g847"
       transform="translate(2.2678585,-14.363095)"
       inkscape:export-xdpi="96"
       inkscape:export-ydpi="96">
      <path
         style="fill:#923337;stroke:#ffa500;stroke-width:0.7;stroke-miterlimit:4;stroke-dasharray:none;stroke-opacity:0.992157"
         d="m 116.69213,163.09728 c -2.094,-0.25772 -4.78151,-1.30166 -5.27723,-2.0499 -0.61211,-0.92394 0.11524,-2.00167 1.96009,-2.90427 1.46093,-0.71477 1.6803,-0.74468 5.49448,-0.7492 3.61167,-0.004 4.07341,0.0491 5.07978,0.58705 1.30061,0.69527 1.93572,1.50529 1.93572,2.46881 0,0.93454 -0.60293,1.41229 -2.64584,2.09649 -1.9682,0.65918 -4.16555,0.84412 -6.547,0.55102 z M 65.641098,149.06153 c -1.337829,-0.56484 -2.766579,-1.25503 -3.175,-1.53375 -0.408422,-0.27873 -1.242952,-0.83534 -1.854512,-1.23691 -1.316064,-0.86415 -2.190742,-1.99845 -1.541059,-1.99845 0.221057,0 1.137954,0.25472 2.037551,0.56604 l 1.635631,0.56605 0.503108,-0.62131 c 1.241364,-1.53302 2.635337,-4.23124 2.48557,-4.81114 -0.08444,-0.32694 -0.389033,-1.42787 -0.676881,-2.44651 -0.287851,-1.01865 -0.530227,-2.33712 -0.538615,-2.92994 -0.02704,-1.91083 0.791575,-6.02851 1.463564,-7.36183 0.985282,-1.95493 3.061928,-4.65786 3.702039,-4.81852 0.594943,-0.14932 2.471727,0.88857 5.598978,3.09631 2.107414,1.48777 4.440362,3.00185 5.624332,3.65018 0.509323,0.2789 1.197306,0.79783 1.52885,1.15318 l 0.602806,0.64609 -0.756558,1.43018 c -1.091991,2.06427 -3.370999,4.97076 -4.643215,5.92165 -0.939186,0.70196 -3.507002,1.97856 -5.330841,2.65023 -0.291041,0.10719 -1.169945,0.27056 -1.953122,0.36305 l -1.423953,0.16817 -1.549744,2.56551 c -1.383729,2.29069 -1.720027,3.38761 -1.038585,3.38761 0.364188,0 2.128946,1.8748 2.128946,2.2617 0,0.51806 -0.04785,0.50677 -2.82929,-0.66756 z m 13.560758,-16.00098 c 0.233701,-0.35667 0.3541,-0.86269 0.267549,-1.12448 -0.146156,-0.44206 -3.408949,-2.79037 -4.9136,-3.53642 -0.363803,-0.18038 -1.337025,-0.8455 -2.162715,-1.47803 -0.825693,-0.63251 -1.740321,-1.15003 -2.032505,-1.15003 -0.292185,0 -0.788575,0.36138 -1.103088,0.80307 -0.656439,0.92189 -0.479579,1.3151 0.913413,2.03078 0.447162,0.22973 1.110676,0.64751 1.474478,0.92838 1.592167,1.22922 6.258692,4.13278 6.67463,4.15303 0.251307,0.0122 0.648134,-0.26959 0.881838,-0.62627 z"
         id="path851"
         sodipodi:nodetypes="sssccssscscsscssssssssscsssscsssccsssssssscss" />
      <path
         style="fill:#281d1c;stroke:#ffa500;stroke-width:0.7;stroke-miterlimit:4;stroke-dasharray:none;stroke-opacity:0.992157"
         d="m 79.061326,209.47918 c -0.32229,-1.58167 -0.47916,-3.70356 -0.643004,-8.69742 -0.151185,-4.60808 -0.250881,-5.56057 -0.620708,-5.9304 -0.574502,-0.5745 -1.115092,-0.15751 -1.541098,1.18876 -0.168996,0.53406 -0.604416,1.64751 -0.967601,2.47432 l -0.66034,1.5033 -1.668189,0.17865 c -2.028611,0.21724 -3.567418,-0.19548 -3.567418,-0.95681 0,-0.27975 -0.236757,-0.7454 -0.526123,-1.03477 -0.525111,-0.52511 -0.521603,-0.53604 1.820795,-5.67334 2.576016,-5.64966 8.334369,-16.00193 9.855004,-17.71717 l 0.963223,-1.08649 1.814901,0.46806 c 1.916726,0.49433 3.084013,1.16681 3.219444,1.85474 0.09554,0.4852 -2.233462,6.02736 -4.316258,10.27119 -0.799651,1.62934 -1.453908,3.17691 -1.453908,3.43904 0,0.26213 0.344812,0.81007 0.766251,1.21762 l 0.766252,0.74102 0.559652,7.01146 c 0.307807,3.8563 0.63084,7.7475 0.717853,8.64712 l 0.158203,1.63567 -1.060468,0.28555 c -0.583255,0.15705 -1.609809,0.38818 -2.28123,0.51362 -1.122878,0.20977 -1.22994,0.18302 -1.335233,-0.33372 z m 33.484844,-5.22125 c -0.24894,-0.41692 -0.37518,-1.49178 -0.38429,-3.27236 l -0.0135,-2.65151 h 3.15714 3.15714 l 0.20647,-1.05833 c 0.35665,-1.82834 0.57006,-10.35519 0.26391,-10.54441 -0.15141,-0.0936 -1.34451,-0.28075 -2.65135,-0.41595 -3.34068,-0.34562 -3.63272,-0.66409 -3.82602,-4.17234 -0.13919,-2.52592 -0.12092,-2.64359 0.50378,-3.24483 l 0.64818,-0.62387 6.00464,0.17454 c 3.30257,0.096 6.43678,0.24714 6.9649,0.33587 0.90606,0.15221 0.96954,0.22897 1.1245,1.35944 0.0902,0.65896 0.16421,2.37212 0.16421,3.80702 v 2.6089 l -1.25677,0.0527 c -0.69123,0.029 -1.73302,0.0588 -2.31509,0.0661 -0.58211,0.007 -1.20717,0.10974 -1.38906,0.22747 -0.66469,0.43019 -0.26564,9.58717 0.46962,10.77688 0.14764,0.23884 1.01904,0.39185 2.68526,0.47152 3.22696,0.15428 3.64697,0.49154 3.65355,2.93373 0.004,1.55509 -0.0616,1.7554 -0.79253,2.40785 -0.90621,0.80906 -1.73632,0.90077 -10.97684,1.21266 l -5.02709,0.16968 z m -55.492412,-1.27584 c -2.782859,-1.28834 -3.40066,-1.84087 -3.422049,-3.06053 -0.01648,-0.94131 0.2769,-1.45328 2.653549,-4.63021 3.663538,-4.89714 6.061006,-8.62591 5.868576,-9.12736 -0.135499,-0.3531 -0.869438,-0.39908 -5.380975,-0.33711 -5.174279,0.0711 -5.227008,0.0776 -5.531329,0.6885 -0.19623,0.39389 -0.225509,0.8719 -0.081,1.32291 0.12442,0.3884 0.476331,1.58675 0.782019,2.663 0.6306,2.22019 0.600401,2.28075 -1.279208,2.56498 -1.500199,0.22686 -1.897599,-0.15203 -3.493909,-3.33117 -1.015359,-2.02216 -2.911839,-7.37473 -2.911839,-8.21832 0,-0.1036 3.125389,-0.27325 6.945317,-0.377 5.434807,-0.14762 8.238136,-0.0919 12.889783,0.25602 5.528905,0.41357 5.986735,0.48691 6.548766,1.04894 l 0.604276,0.60428 -2.546881,4.7321 c -4.30165,7.99248 -9.095508,15.97829 -9.583587,15.96476 -0.24084,-0.007 -1.1685,-0.35039 -2.061479,-0.76379 z m 123.239932,0.0126 -0.58813,-0.44362 0.56969,-1.84393 c 0.42075,-1.36186 0.57495,-2.57022 0.58977,-4.62205 0.0267,-3.69194 -0.32758,-4.66467 -1.93461,-5.31181 -0.65483,-0.2637 -1.86886,-0.48611 -2.69782,-0.49424 l -1.50721,-0.0148 -0.97122,1.46319 c -0.80969,1.21986 -1.06506,1.43393 -1.53551,1.28726 -0.31034,-0.0968 -0.64351,-0.29948 -0.74037,-0.45047 -0.25836,-0.40279 -1.54446,-7.18702 -1.72757,-9.113 -0.10059,-1.058 -0.0591,-1.65365 0.11475,-1.65365 0.1496,0 0.3314,-0.22714 0.40401,-0.50477 0.1301,-0.49759 1.55677,-0.77571 4.67339,-0.91104 l 0.90722,-0.0394 -0.0679,2.55129 c -0.0443,1.66276 0.0349,2.61489 0.2275,2.73393 0.16253,0.10045 2.98911,0.0373 6.28125,-0.14032 l 5.98573,-0.32297 0.50836,0.69789 c 0.27963,0.38384 0.66317,0.69789 0.85235,0.69789 0.82597,0 0.88111,2.39376 0.0748,3.25329 -0.48745,0.5197 -0.95077,0.66388 -2.55681,0.79562 -2.16014,0.17719 -2.49737,0.42566 -2.22529,1.63963 0.0977,0.43657 0.16175,2.20587 0.14204,3.9318 l -0.0358,3.13804 -0.99256,1.53293 c -0.68786,1.06238 -1.32552,1.69471 -2.07725,2.05992 -1.02152,0.4963 -1.11891,0.50116 -1.67278,0.0834 z m -23.25753,-0.85187 c -0.82218,-0.47929 -1.38907,-0.9952 -1.38907,-1.26416 0,-0.24993 -0.11594,-0.57037 -0.25768,-0.71209 -0.16719,-0.16719 0.34686,-1.31709 1.46373,-3.27429 1.95151,-3.41986 4.3502,-8.67139 4.3502,-9.52402 0,-0.55641 -0.0797,-0.56813 -3.59675,-0.52827 -1.97821,0.0224 -3.69045,-0.0612 -3.80497,-0.18572 -0.11453,-0.12456 -0.28838,-1.08204 -0.38635,-2.12772 -0.16345,-1.74462 -0.13334,-1.92521 0.3654,-2.19212 0.29893,-0.15999 0.54351,-0.46529 0.54351,-0.67845 0,-0.45339 -0.087,-0.44832 2.11666,-0.1232 0.9459,0.13955 3.7966,0.43795 6.33493,0.66311 2.53832,0.22517 4.67309,0.46734 4.74391,0.53817 0.23237,0.23237 -0.80483,4.18416 -1.58436,6.03654 -0.41979,0.9975 -0.76323,2.0239 -0.76323,2.28089 0,0.25698 0.99937,1.52887 2.22082,2.82642 1.88261,1.99986 2.21446,2.4862 2.17888,3.19321 -0.0464,0.92466 -1.54364,3.2473 -2.09316,3.2473 -0.66865,0 -2.58282,-1.64554 -3.26168,-2.80394 -0.37546,-0.64065 -0.84626,-1.16481 -1.04623,-1.16481 -0.39557,0 -1.80195,2.07034 -2.91466,4.29067 -0.69781,1.39242 -1.37405,2.32917 -1.6734,2.31807 -0.0865,-0.003 -0.78252,-0.37022 -1.5465,-0.81559 z m -69.022993,-0.95275 c -0.472529,-0.51588 -1.03848,-1.30825 -1.257666,-1.76083 -0.347383,-0.71726 -0.349564,-0.87696 -0.01697,-1.24444 0.209842,-0.23188 0.381534,-0.66563 0.381534,-0.96391 0,-0.44656 0.302547,-0.61831 1.713633,-0.97276 4.972632,-1.24909 6.798165,-2.67245 7.899681,-6.15936 0.364526,-1.15393 0.748185,-2.96487 0.85258,-4.0243 0.168682,-1.71186 0.261319,-1.95344 0.832303,-2.17053 0.894499,-0.34009 0.846084,-0.37155 1.418155,0.92171 1.331093,3.00917 0.739073,8.91336 -1.284814,12.8133 -0.914155,1.76154 -4.049794,3.41942 -7.843426,4.147 l -1.835846,0.35209 z m 44.969633,0.68761 c -0.38823,-0.47322 -0.77701,-3.30892 -1.13879,-8.30614 -0.15802,-2.18281 -0.34062,-4.46777 -0.40576,-5.07768 -0.0992,-0.93008 -0.0342,-1.13565 0.40355,-1.2746 0.28708,-0.0911 0.52198,-0.3235 0.52198,-0.51641 0,-0.49333 0.61025,-0.67193 2.29591,-0.67193 1.63439,0 2.87406,0.57279 3.10558,1.43497 0.081,0.30217 0.14916,1.17029 0.15115,1.92916 0.003,1.06771 0.11395,1.4388 0.49154,1.64089 0.6961,0.37254 5.4624,-0.15801 6.82185,-0.75936 0.94339,-0.41731 1.15774,-0.67214 1.5443,-1.83595 0.50381,-1.51685 0.66626,-1.57376 3.03914,-1.06487 1.02275,0.21934 1.33593,0.40176 1.33593,0.77813 0,0.2704 0.11029,0.55979 0.2451,0.6431 0.29905,0.18484 0.0156,1.24192 -0.71934,2.68252 -0.93338,1.8296 -3.29102,2.48467 -8.9522,2.48737 -2.24987,0.001 -3.28674,0.10037 -3.46968,0.33226 -0.33142,0.42008 -0.64841,3.93315 -0.39176,4.34175 0.33307,0.53028 4.29915,0.70199 8.14851,0.35279 3.43116,-0.31126 3.66219,-0.30253 3.99373,0.15088 0.51038,0.69799 0.43147,1.81357 -0.16655,2.35477 -0.46461,0.42047 -1.3507,0.4836 -8.53509,0.60808 -6.65566,0.11532 -8.068,0.0763 -8.3191,-0.22973 z m -29.56036,-1.35234 c -0.4908,-0.53422 -0.48356,-0.57435 0.46159,-2.55764 1.36659,-2.86759 1.58367,-4.05079 1.42826,-7.78445 -0.0739,-1.77446 -0.17897,-3.40489 -0.23358,-3.62317 -0.078,-0.31184 0.22603,-0.41386 1.41904,-0.47613 1.23884,-0.0647 1.62646,0.0215 2.10565,0.46789 0.53411,0.49762 0.58646,0.79222 0.57818,3.25426 -0.017,5.05934 -1.24416,8.59337 -3.64323,10.49204 -1.18915,0.94111 -1.43569,0.96758 -2.11591,0.2272 z M 86.723168,188.90827 c -0.291041,-0.16268 -0.801432,-0.46543 -1.134205,-0.6728 l -0.605036,-0.37701 0.700393,-1.28686 c 0.385216,-0.70777 1.111646,-1.68442 1.61429,-2.17034 l 0.913893,-0.88349 0.764979,0.92605 c 0.914716,1.1073 1.981671,3.04115 2.205656,3.99774 l 0.161672,0.69046 -2.04624,0.036 c -1.125428,0.0198 -2.28436,-0.0971 -2.575402,-0.25976 z m 58.266662,-4.86057 c -1.50133,-3.06119 -1.11736,-4.75935 1.03619,-4.58258 l 1.02213,0.0839 0.0796,1.53406 c 0.0619,1.19215 -0.0674,1.85555 -0.58066,2.97656 -0.36323,0.79338 -0.70174,1.44251 -0.75223,1.44251 -0.0505,0 -0.41281,-0.6545 -0.80515,-1.45445 z m 4.20371,0.12618 c -0.24884,-0.6219 -0.42561,-1.83071 -0.42561,-2.91042 v -1.84673 h 1.30731 c 0.71901,0 1.36134,0.0893 1.42741,0.19844 0.40785,0.67386 -1.02923,5.6224 -1.63278,5.6224 -0.1379,0 -0.44225,-0.47866 -0.67633,-1.06369 z m -51.225586,-1.58215 c 0,-0.14552 0.119063,-0.26458 0.264583,-0.26458 0.14552,0 0.264583,0.11906 0.264583,0.26458 0,0.14552 -0.119063,0.26459 -0.264583,0.26459 -0.14552,0 -0.264583,-0.11907 -0.264583,-0.26459 z m 25.029346,-9.04782 c -0.50763,-0.48073 -1.21516,-1.40983 -1.57228,-2.06468 l -0.64935,-1.19062 -2.20959,-0.19808 c -3.0771,-0.27585 -5.62208,-0.88963 -7.59749,-1.83231 -4.01621,-1.91657 -5.50211,-4.58793 -5.02203,-9.0287 0.2542,-2.35132 0.71471,-3.42323 1.75033,-4.07419 0.39716,-0.24964 1.09548,-0.77098 1.55182,-1.15855 0.51671,-0.4388 1.31529,-0.77696 2.11669,-0.89629 0.70781,-0.10538 1.42218,-0.30284 1.58748,-0.43879 0.16531,-0.13594 2.32042,-0.38155 4.78912,-0.5458 3.89707,-0.25928 4.83529,-0.24087 7.11933,0.13964 1.44692,0.24105 3.04227,0.43886 3.54524,0.43957 1.05729,0.002 4.25826,1.55093 5.35714,2.59314 0.40615,0.38521 1.03975,1.23897 1.40803,1.89725 0.58304,1.04219 0.67373,1.53878 0.70184,3.84269 0.0267,2.19166 -0.0657,2.86157 -0.53873,3.90261 -0.31407,0.69122 -0.7383,1.25677 -0.94273,1.25677 -0.20445,0 -0.95283,0.45993 -1.66305,1.02207 -1.69655,1.3428 -2.57384,1.77259 -4.71711,2.31096 -1.88591,0.47373 -2.31698,0.89967 -1.65742,1.63776 0.35566,0.39798 0.56643,1.4242 0.48102,2.34195 -0.0154,0.1657 -0.47451,0.38041 -1.02022,0.47713 -0.5457,0.0967 -1.19534,0.23539 -1.44366,0.30818 -0.27584,0.0809 -0.81045,-0.20766 -1.37438,-0.74171 z m 2.48731,-10.26907 c 2.04291,-0.6842 2.64583,-1.16195 2.64583,-2.09649 0,-0.96352 -0.6351,-1.77354 -1.93572,-2.46881 -1.00637,-0.53798 -1.46809,-0.59134 -5.07977,-0.58705 -3.81419,0.005 -4.03356,0.0344 -5.49448,0.7492 -1.84485,0.9026 -2.5722,1.98033 -1.96009,2.90427 0.20958,0.31633 1.11094,0.86122 2.00305,1.21085 3.02503,1.18561 6.80977,1.2966 9.82118,0.28803 z m -9.73745,-13.7844 c -1.06273,-0.12361 -2.46588,-0.40591 -3.11808,-0.62735 -0.65222,-0.22143 -1.35622,-0.40261 -1.56442,-0.40261 -0.20819,0 -1.72209,-0.46072 -3.36419,-1.02382 -2.77652,-0.95211 -3.46288,-1.32808 -7.08669,-3.88194 -1.465884,-1.03307 -2.770125,-2.61491 -3.638485,-4.41293 -0.441341,-0.91383 -1.067813,-1.93991 -1.392162,-2.28018 l -0.589725,-0.61867 -4.832944,0.18967 c -2.658119,0.10431 -4.965732,0.1076 -5.128023,0.007 -0.370056,-0.22871 0.03476,-1.04713 1.007129,-2.03623 2.454372,-2.49656 4.520054,-5.08906 4.520054,-5.67283 0,-0.65932 -2.580152,-2.73078 -5.633924,-4.52318 -1.134125,-0.66566 -2.017534,-1.34493 -1.963124,-1.50947 0.06408,-0.19382 1.619126,-0.37652 4.415698,-0.51882 2.374229,-0.1208 4.574344,-0.31756 4.889148,-0.43725 0.418883,-0.15926 0.696816,-0.66796 1.036452,-1.89703 0.255248,-0.92367 0.661703,-1.97706 0.903233,-2.34087 0.24153,-0.3638 0.691838,-1.19902 1.000681,-1.85604 0.321744,-0.68446 0.973705,-1.47535 1.526751,-1.85208 0.530866,-0.36163 0.966029,-0.815 0.967024,-1.00751 0.0034,-0.65239 3.292677,-3.43786 5.207957,-4.41023 2.23927,-1.13685 2.60775,-1.4934 2.24461,-2.17193 -0.25808,-0.48224 -1.22064,-0.83304 -7.847634,-2.86003 -4.132061,-1.26387 -6.270833,-2.00718 -6.680727,-2.32183 -0.532341,-0.40867 -0.38904,-1.324052 0.553708,-3.537002 0.661135,-1.5519 1.0252,-2.09697 1.441961,-2.15888 0.306638,-0.0455 1.696003,0.28188 3.087474,0.72761 1.391473,0.44573 2.737833,0.81041 2.991914,0.81041 0.254079,0 0.996794,0.28231 1.650484,0.62734 1.45655,0.76882 5.04557,2.0185 5.79703,2.0185 0.47039,0 0.55208,-0.16427 0.55913,-1.12448 0.005,-0.64453 0.28605,-1.68913 0.65904,-2.4474 0.35793,-0.7276 0.65185,-1.5417 0.65318,-1.80911 0.001,-0.26741 0.35355,-1.5771 0.78266,-2.91042 1.32379,-4.113092 1.60691,-5.024486 1.98371,-6.385976 0.20384,-0.736396 0.6478,-1.552046 1.00813,-1.852083 0.35414,-0.294888 0.71813,-0.744518 0.80884,-0.99918 0.22078,-0.619677 0.8692,-0.584204 3.29752,0.180402 1.12388,0.353883 2.57923,0.796508 3.23406,0.983613 0.65485,0.187104 1.48827,0.492143 1.85209,0.677864 0.36381,0.18572 0.92532,0.338407 1.24781,0.339304 0.32246,8.99e-4 0.97729,0.16594 1.45519,0.366763 0.47789,0.200823 1.28558,0.485076 1.79491,0.631673 4.96076,1.42784 12.44567,3.890242 13.89062,4.569775 0.58209,0.273741 2.07036,0.759755 3.30729,1.080025 1.23693,0.32027 2.40584,0.72429 2.5976,0.89781 0.28695,0.25969 0.24553,0.68512 -0.23415,2.40482 -0.87543,3.13859 -2.08751,7.015522 -2.47299,7.910152 -0.18809,0.43656 -0.49194,1.44859 -0.67519,2.24896 -0.18325,0.80036 -0.43885,1.7287 -0.56797,2.06297 -0.12915,0.33427 -0.23481,0.9202 -0.23481,1.30208 0,0.38188 -0.19957,0.91487 -0.44354,1.18443 -0.55771,0.61627 -0.35778,0.786 1.63418,1.38739 0.87313,0.26361 1.82235,0.64299 2.10939,0.84308 0.28704,0.20009 0.76656,0.3638 1.06559,0.3638 0.29906,0 0.77858,0.16225 1.06562,0.36056 0.28703,0.1983 0.87908,0.42404 1.31563,0.50164 1.87676,0.3336 5.49927,1.48095 5.881,1.86269 0.35632,0.35633 0.36977,0.59604 0.0946,1.68945 -0.67003,2.66334 -0.90721,3.25857 -1.29844,3.25857 -0.48729,0 -2.69225,-0.62055 -5.33871,-1.50249 -3.18238,-1.06055 -3.94142,-1.25886 -4.12302,-1.07725 -0.0939,0.094 0.25277,1.21894 0.77068,2.49983 0.5179,1.28088 1.06456,3.02037 1.2148,3.86554 0.15022,0.84516 0.34788,1.65755 0.43919,1.80531 0.56365,0.91201 -0.30117,8.32922 -1.15365,9.89437 -0.15637,0.28709 -0.6319,1.29989 -1.05671,2.25067 -1.70259,3.81055 -4.20689,6.42582 -9.00829,9.40749 -1.39521,0.86643 -6.18517,2.48987 -7.34636,2.48987 -0.46466,0 -1.78073,0.16813 -2.92458,0.37362 -2.85477,0.51287 -5.94269,0.65958 -8.24533,0.39175 z m -14.11097,-36.94798 c 2.3829,-2.00973 3.57486,-2.88762 4.18251,-3.08048 0.6063,-0.19244 0.98196,-0.83995 0.7268,-1.2528 -0.3351,-0.54221 -1.83615,0.34711 -4.47651,2.65217 -1.53443,1.33958 -2.669793,2.93872 -2.086443,2.93872 0.0894,0 0.833523,-0.56593 1.653643,-1.25761 z m 7.40201,-4.64783 c 0.29232,-0.23446 0.27854,-0.34007 -0.0783,-0.60109 -0.50541,-0.36958 -1.3126,-0.21579 -1.77185,0.33758 -0.67808,0.81704 0.88297,1.03936 1.8503,0.26351 z m 25.94176,-0.37842 c 0.34209,-0.28378 0.76141,-1.23117 1.08326,-2.44739 0.2888,-1.09141 0.67209,-2.49547 0.85176,-3.12014 0.38207,-1.32854 0.11082,-1.989382 -0.87406,-2.129522 -0.34896,-0.0496 -0.8353,-0.26967 -1.08079,-0.48894 -0.24549,-0.21927 -0.57133,-0.32142 -0.72411,-0.227 -0.31678,0.19578 -3.58439,-0.83141 -6.89932,-2.16882 -3.0764,-1.24115 -4.83121,-1.78643 -7.01146,-2.17866 -1.01865,-0.18326 -2.30098,-0.49763 -2.84964,-0.69861 -1.58587,-0.58092 -2.71477,-0.47439 -3.33554,0.31479 -0.60795,0.77289 -1.31669,3.01533 -1.53464,4.85566 -0.17418,1.470632 0.13482,1.891062 1.82801,2.487272 6.23521,2.19554 11.71595,3.96626 13.16785,4.25427 1.32937,0.26371 5.26145,1.43803 5.73289,1.71215 0.68313,0.39718 1.00724,0.36468 1.64579,-0.16506 z"
         id="path849"
         sodipodi:nodetypes="ssssscssssscssssscsscssscccccssssscsssscccsssccsccsssscssssssscscscssccsssscscssssscssscsssscccssscssssssssssssssssssssscsssssssssssscsssccssccssssssscsssssssssssccssssscsscsscssscsccssccsscssssssssssscssssssssscssccsssssscssssccscscsssssscccsssssssssscsssssssssscscssssssssssssssssssssssssssssssssssssscccsssscccsccsscssssssssssss" />
    </g>
  </g>
</svg>
